<?xml version="1.0" encoding="UTF-8" standalone="no"?>
<svg width="56px" height="63px" viewBox="0 0 56 63" version="1.1" xmlns="http://www.w3.org/2000/svg" xmlns:xlink="http://www.w3.org/1999/xlink">
    <!-- Generator: Sketch 43.2 (39069) - http://www.bohemiancoding.com/sketch -->
    <title>ic_logo_symbol</title>
    <desc>Created with Sketch.</desc>
    <defs></defs>
    <g id="Page-1" stroke="none" stroke-width="1" fill="none" fill-rule="evenodd">
        <g id="Group-2-Copy-2" fill="#898B85">
            <path d="M21.0828,9.75375 C20.9208,9.3099 20.80395,8.8497 20.7381,8.3802 C20.4312,6.1896 21.22725,3.8724 22.8222,2.3334 C24.1077,1.09305 25.87695,0.3771 27.66225,0.36015 C27.6924,0.36 27.7227,0.36 27.75285,0.36015 C30.3486,0.38475 32.8611,1.9542 34.01265,4.2699 C34.85295,5.9598 34.96125,7.9935 34.33185,9.7719 L43.00485,14.7792 C43.1661,14.5866 43.338,14.40285 43.5201,14.2293 C44.80005,13.0089 46.5342,12.30225 48.32955,12.28515 C48.35985,12.285 48.39,12.285 48.4203,12.28515 C51.00585,12.3099 53.52435,13.87095 54.67995,16.1949 C55.62915,18.10365 55.64445,20.451 54.7176,22.37355 C53.751,24.37845 51.77505,25.82655 49.57185,26.23605 L49.57185,36.25365 C51.7287,36.65115 53.69775,38.07645 54.67995,40.0518 C55.62915,41.9604 55.64445,44.30775 54.7176,46.23045 C53.3955,48.97275 50.1849,50.6733 47.0874,50.09925 C45.48255,49.8018 44.02635,48.8913 42.9819,47.64045 L34.3029,52.65135 C34.95285,54.4197 34.8705,56.45385 34.05015,58.15545 C32.5281,61.31265 28.45275,63.0384 25.008,61.60485 C22.76205,60.6702 21.0762,58.4997 20.7381,56.0871 C20.5776,54.94065 20.7195,53.76 21.11955,52.674 L12.4437,47.66505 C10.85055,49.5342 8.2641,50.56485 5.7519,50.09925 C2.87505,49.56615 0.4764,47.0631 0.0699,44.1621 C-0.2409,41.9436 0.58155,39.59625 2.21505,38.0571 C3.20625,37.12305 4.46325,36.49515 5.8113,36.25305 L5.8113,26.25315 C5.7915,26.2497 5.7717,26.2461 5.7519,26.2425 C2.87505,25.7094 0.4764,23.20635 0.0699,20.3052 C-0.237,18.1146 0.55905,15.7974 2.154,14.2584 C3.4386,13.0191 5.19855,12.30225 6.9939,12.28515 C7.0242,12.285 7.0545,12.285 7.08465,12.28515 C9.09885,12.30435 11.07195,13.25715 12.39075,14.77215 L21.0828,9.75375 Z M27.6759,50.2173 C25.4661,50.2383 23.36985,51.9216 22.91955,54.11925 C22.59285,55.71375 23.12655,57.4605 24.2943,58.6008 C25.6425,59.91735 27.77955,60.3561 29.5536,59.63085 C31.6197,58.7862 32.93145,56.3898 32.5074,54.17895 C32.09235,52.0152 30.0912,50.2689 27.8025,50.21805 C27.76035,50.2173 27.71805,50.21715 27.6759,50.2173 Z M20.99895,42.8091 C19.215,43.9356 16.90785,44.28255 14.8308,43.4334 C14.56725,43.32555 14.31165,43.20015 14.06535,43.05855 C14.08125,44.0031 13.91325,44.95095 13.5603,45.8268 L22.15515,50.78895 C22.37565,50.50155 22.6188,50.23125 22.88325,49.9821 C23.30385,49.5858 23.7723,49.2447 24.2751,48.96465 C22.5603,47.92905 21.3213,46.11015 21.04245,44.1195 C20.9814,43.68435 20.9682,43.24515 20.99895,42.8091 Z M34.4208,42.87375 C34.46985,43.9806 34.25445,45.0993 33.77355,46.09695 C33.1929,47.30115 32.2242,48.28695 31.0608,48.95055 C31.89945,49.41015 32.64975,50.03265 33.246,50.7786 L41.8605,45.80505 C41.64045,45.28035 41.4849,44.7288 41.40555,44.1621 C41.3514,43.77555 41.33175,43.3851 41.34465,42.9957 C39.5964,43.97775 37.41615,44.2353 35.4513,43.4178 C35.0916,43.2681 34.7469,43.08525 34.4208,42.87375 Z M28.5579,38.0565 L28.5579,48.1239 C28.7148,48.1446 28.8711,48.17085 29.0262,48.20235 C29.24445,48.1467 29.45955,48.0762 29.6697,47.99025 C31.33185,47.31045 32.5869,45.714 32.847,43.9386 C33.16815,41.74695 31.92225,39.4143 29.90115,38.47005 C29.47575,38.2713 29.0211,38.13315 28.5579,38.0565 Z M27.0219,38.0358 C24.90945,38.3448 23.05095,40.0221 22.61865,42.1326 C22.27155,43.8267 22.8387,45.68385 24.07965,46.89555 C24.7251,47.52585 25.5408,47.9664 26.4144,48.1902 C26.6151,48.15225 26.81775,48.12285 27.0219,48.1023 L27.0219,38.0358 Z M7.00755,38.29215 C4.7997,38.3133 2.7024,39.99225 2.25135,42.19425 C1.92465,43.7886 2.45835,45.5355 3.6261,46.6758 C4.9752,47.99325 7.1157,48.42945 8.88525,47.70585 C10.9512,46.86105 12.26325,44.4648 11.8392,42.25395 C11.42415,40.0902 9.423,38.3439 7.1343,38.29305 C7.09215,38.2923 7.04985,38.29215 7.00755,38.29215 Z M48.3432,38.29215 C46.14525,38.3133 44.05545,39.9774 43.59315,42.1644 C43.254,43.76895 43.7874,45.5292 44.9616,46.6758 C46.3107,47.99325 48.4512,48.42945 50.2209,47.70585 C52.28685,46.86105 53.59875,44.46495 53.1747,42.2538 C52.7598,40.0902 50.75865,38.3439 48.46995,38.29305 C48.42765,38.2923 48.3855,38.29215 48.3432,38.29215 Z M22.12965,35.1366 L13.3989,40.16415 C13.5045,40.3872 13.59765,40.6161 13.6782,40.8492 C13.7007,40.872 13.7235,40.89465 13.74645,40.91715 C15.18015,42.31695 17.45115,42.78255 19.33665,42.0117 C21.52635,41.11635 22.91505,38.58645 22.48185,36.24945 C22.41045,35.8641 22.29075,35.49105 22.12965,35.1366 Z M33.28575,35.1135 C33.1338,35.44425 33.01785,35.7927 32.94375,36.15405 C32.5968,37.84845 33.1641,39.70575 34.4049,40.91715 C35.8386,42.31695 38.1096,42.78255 39.99495,42.0117 C40.668,41.7366 41.2743,41.31105 41.7747,40.7841 C41.85255,40.5699 41.9403,40.35915 42.03765,40.1532 L33.28575,35.1135 Z M21.29295,33.846 C20.3406,32.75925 18.95055,32.04015 17.47515,32.00745 C17.4303,32.0067 17.3856,32.0064 17.34075,32.00655 C14.9925,32.02875 12.76365,33.81945 12.28545,36.15405 C12.1176,36.9735 12.16365,37.83105 12.3963,38.63535 C12.4605,38.70915 12.52305,38.78445 12.5841,38.86095 L21.29295,33.846 Z M43.03275,38.60385 C43.0935,38.3928 43.1403,38.17785 43.17225,37.9602 C43.5822,35.16195 41.3751,32.2269 38.39985,32.01915 C38.2665,32.00985 38.13285,32.0061 37.99905,32.00655 C36.52905,32.0205 35.10585,32.72745 34.12965,33.82695 L42.83955,38.8425 C42.9021,38.7615 42.9666,38.682 43.03275,38.60385 Z M10.64715,25.32165 C9.82875,25.81065 8.91315,26.1432 7.9617,26.2815 L7.9617,36.2088 C8.90865,36.34395 9.8262,36.67845 10.6479,37.1721 C10.66785,35.3832 11.412,33.60285 12.7023,32.35785 C13.1646,31.91175 13.6908,31.5363 14.25915,31.2408 C12.381,30.2457 11.00505,28.32735 10.70925,26.21595 C10.6677,25.9194 10.6473,25.6206 10.64715,25.32165 Z M44.75265,25.32645 C44.7459,26.31555 44.5281,27.3027 44.09865,28.19355 C43.4655,29.50665 42.3705,30.56085 41.0643,31.2201 C42.3192,31.86195 43.38195,32.88045 44.02605,34.1373 C44.50215,35.06625 44.74455,36.10755 44.75265,37.1502 C45.56655,36.6642 46.4778,36.34215 47.4216,36.20985 L47.4216,26.2956 C47.31015,26.28075 47.1987,26.26305 47.0874,26.2425 C46.2573,26.0886 45.4668,25.7706 44.75265,25.32645 Z M27.0219,36.3573 L27.0219,32.31945 L23.54925,34.3191 C23.7126,34.54365 23.8944,34.75485 24.0936,34.9494 C24.88305,35.72025 25.9284,36.20625 27.0219,36.3573 Z M31.8696,34.29795 L28.5579,32.391 L28.5579,36.3459 C28.93455,36.2871 29.30535,36.1857 29.6622,36.03975 C30.54165,35.6802 31.30665,35.06295 31.8696,34.29795 Z M22.97565,29.1765 C22.8258,29.5038 22.71135,29.84805 22.6383,30.20475 C22.4514,31.1169 22.5306,32.07645 22.83795,32.95635 L26.1888,31.02675 L22.97565,29.1765 Z M32.40795,29.21805 L29.2668,31.02675 L32.5926,32.94195 C32.7009,32.63805 32.78025,32.32395 32.8272,32.00385 C32.9664,31.0539 32.8023,30.08745 32.40795,29.21805 Z M12.8181,23.32755 C12.67755,23.52555 12.5265,23.7159 12.36585,23.898 C12.3351,24.00705 12.30825,24.11745 12.28545,24.22905 C11.93835,25.92315 12.5055,27.78045 13.74645,28.99215 C15.18015,30.3918 17.45115,30.85755 19.33665,30.0867 C20.21505,29.72745 20.9646,29.10525 21.5193,28.338 L12.8181,23.32755 Z M42.63225,23.33055 L33.87045,28.3758 C34.03125,28.5951 34.20975,28.80165 34.4049,28.992 C35.8386,30.3918 38.1096,30.85755 39.99495,30.0867 C41.6571,29.4072 42.912,27.81045 43.17225,26.03505 C43.28535,25.2633 43.19895,24.4806 42.9519,23.7474 C42.84045,23.61225 42.7338,23.4732 42.63225,23.33055 Z M27.0219,26.1249 C25.7955,26.307 24.6459,26.9577 23.81865,27.88965 L27.0219,29.7342 L27.0219,26.1249 Z M28.5579,26.1447 L28.5579,29.66265 L31.58505,27.9195 C30.8205,27.01695 29.76585,26.35455 28.5579,26.1447 Z M41.7954,21.7872 C40.935,20.8413 39.7461,20.1882 38.39985,20.09415 C38.2665,20.08485 38.133,20.0811 37.99905,20.08155 C35.652,20.1039 33.4221,21.89445 32.94375,24.22905 C32.75445,25.1535 32.83725,26.1264 33.15315,27.0165 L41.8791,21.9918 C41.85,21.924 41.8221,21.85575 41.7954,21.7872 Z M22.23945,26.9802 C22.5474,26.13435 22.647,25.2153 22.48185,24.3243 C22.0521,22.00485 19.87665,20.13555 17.47515,20.08245 C17.4303,20.0817 17.3856,20.0814 17.34075,20.08155 C15.9651,20.0946 14.6298,20.715 13.66365,21.69645 C13.63005,21.79185 13.5942,21.88635 13.55625,21.9801 L22.23945,26.9802 Z M26.41335,14.30715 C24.55275,14.82045 22.99365,16.38405 22.6122,18.3075 C22.27785,19.99335 22.8459,21.83415 24.07965,23.0388 C24.87285,23.81325 25.92315,24.3012 27.0219,24.45255 L27.0219,14.385 C26.8188,14.36835 26.61585,14.34255 26.41335,14.30715 Z M28.93905,14.27715 C28.81275,14.30175 28.68555,14.32275 28.5579,14.3406 L28.5579,24.44115 C28.9371,24.3822 29.3106,24.2802 29.66985,24.13335 C31.3317,23.45385 32.5869,21.8571 32.847,20.08185 C33.16815,17.8902 31.92225,15.55755 29.90115,14.61315 C29.5932,14.4693 29.2698,14.35725 28.93905,14.27715 Z M7.00755,14.4354 C4.79955,14.45655 2.7024,16.13535 2.25135,18.33735 C1.92465,19.93185 2.45835,21.67875 3.6261,22.8189 C4.9752,24.13635 7.11555,24.57255 8.88525,23.84895 C10.95105,23.00445 12.26325,20.6079 11.8392,18.39705 C11.42385,16.23225 9.4236,14.487 7.1343,14.43615 C7.09215,14.43555 7.04985,14.43525 7.00755,14.4354 Z M48.3432,14.4354 C46.14525,14.4564 44.05545,16.1205 43.59315,18.30765 C43.254,19.9122 43.7874,21.67245 44.9616,22.81905 C46.31085,24.13635 48.4512,24.57255 50.2209,23.84895 C52.2867,23.00445 53.59875,20.60805 53.1747,18.39705 C52.75965,16.23225 50.75925,14.487 48.46995,14.43615 C48.42765,14.43555 48.3855,14.43525 48.3432,14.4354 Z M22.1166,11.63985 L13.52835,16.59825 C13.899,17.4882 14.0784,18.45555 14.06565,19.4202 C15.05445,18.86475 16.1832,18.5565 17.331,18.54555 L17.4177,18.54555 C18.6804,18.55755 19.92375,18.95115 20.9856,19.6281 C20.90925,17.7174 21.67395,15.7776 23.0646,14.4516 C23.43165,14.10165 23.8389,13.7958 24.2751,13.53855 C23.4369,13.0623 22.70085,12.4086 22.1166,11.63985 Z M33.29355,11.65545 C32.69115,12.4185 31.92375,13.0518 31.0605,13.5177 C32.1747,14.16255 33.11265,15.1113 33.7008,16.25895 C34.22685,17.28555 34.46775,18.4491 34.42215,19.60035 C35.47965,18.93165 36.723,18.5577 37.9893,18.54555 L38.07615,18.54555 C39.22125,18.5565 40.3497,18.88065 41.3412,19.4448 C41.3304,18.47955 41.52315,17.51295 41.89305,16.6203 L33.29355,11.65545 Z M27.67575,2.5104 C25.45965,2.5314 23.3685,4.22115 22.91955,6.41235 C22.59285,8.00685 23.12655,9.75375 24.2943,10.8939 C25.6434,12.21135 27.7839,12.64755 29.55345,11.92395 C31.61925,11.0793 32.93145,8.6829 32.5074,6.47205 C32.0919,4.3065 30.0639,2.5614 27.8025,2.51115 C27.7602,2.51055 27.71805,2.51025 27.67575,2.5104 Z" id="Fill-41"></path>
        </g>
    </g>
</svg>