<?xml version="1.0" encoding="UTF-8" standalone="no"?>
<svg width="276px" height="69px" viewBox="0 0 276 69" version="1.1" xmlns="http://www.w3.org/2000/svg" xmlns:xlink="http://www.w3.org/1999/xlink">
    <!-- Generator: Sketch 43.2 (39069) - http://www.bohemiancoding.com/sketch -->
    <title>ic_logo_full</title>
    <desc>Created with Sketch.</desc>
    <defs></defs>
    <g id="Page-1" stroke="none" stroke-width="1" fill="none" fill-rule="evenodd">
        <g id="Group-Copy">
            <path d="M88.1743169,38.7135 C86.225123,38.7135 84.4385246,38.3775 82.8142213,37.704 C81.1900683,37.032 79.7823087,36.1005 78.5912432,34.9125 C77.4000273,33.723 76.4735929,32.3055 75.8119399,30.6615 C75.1501366,29.016 74.8193852,27.2325 74.8193852,25.311 C74.8193852,23.3895 75.1501366,21.606 75.8119399,19.9605 C76.4735929,18.315 77.4000273,16.8975 78.5912432,15.7095 C79.7823087,14.52 81.1900683,13.5885 82.8142213,12.9165 C84.4385246,12.2445 86.225123,11.907 88.1743169,11.907 C90.1233607,11.907 91.9101093,12.2445 93.5342623,12.9165 C95.1585656,13.5885 96.5663251,14.52 97.7573907,15.7095 C98.9484563,16.8975 99.8748907,18.315 100.536694,19.9605 C101.198347,21.606 101.529249,23.3895 101.529249,25.311 C101.529249,27.2325 101.198347,29.016 100.536694,30.6615 C99.8748907,32.3055 98.9484563,33.723 97.7573907,34.9125 C96.5663251,36.1005 95.1585656,37.032 93.5342623,37.704 C91.9101093,38.3775 90.1233607,38.7135 88.1743169,38.7135 Z M88.1743169,35.9025 C89.6662295,35.9025 91.0317623,35.6265 92.2710656,35.0745 C93.5102186,34.5225 94.5750546,33.765 95.4654235,32.805 C96.3556421,31.8435 97.0475,30.7215 97.540847,29.436 C98.0340437,28.1505 98.2807923,26.775 98.2807923,25.311 C98.2807923,23.8455 98.0340437,22.47 97.540847,21.1845 C97.0475,19.9005 96.3556421,18.777 95.4654235,17.817 C94.5750546,16.8555 93.5102186,16.0995 92.2710656,15.546 C91.0317623,14.994 89.6662295,14.718 88.1743169,14.718 C86.6824044,14.718 85.3168716,14.994 84.0775683,15.546 C82.838265,16.0995 81.7735792,16.8555 80.8832104,17.817 C79.9928415,18.777 79.3009836,19.9005 78.8077869,21.1845 C78.3144399,22.47 78.0678415,23.8455 78.0678415,25.311 C78.0678415,26.775 78.3144399,28.1505 78.8077869,29.436 C79.3009836,30.7215 79.9928415,31.8435 80.8832104,32.805 C81.7735792,33.765 82.838265,34.5225 84.0775683,35.0745 C85.3168716,35.6265 86.6824044,35.9025 88.1743169,35.9025 Z" id="Fill-2" fill="#8FC641"></path>
            <path d="M105.83127,14.0565 C105.83127,13.659 105.989508,13.2765 106.271421,12.996 C106.553183,12.714 106.935478,12.5565 107.334003,12.5565 L110.458183,12.5565 L119.341735,32.553 L119.41582,32.553 L128.373306,12.5565 L131.386434,12.5565 C131.784959,12.5565 132.167254,12.714 132.449016,12.996 C132.730929,13.2765 132.889167,13.659 132.889167,14.0565 L132.889167,38.064 L129.779863,38.064 L129.779863,16.6635 L129.705929,16.6635 L120.304085,38.064 L118.416352,38.064 L109.014508,16.6635 L108.940574,16.6635 L108.940574,38.064 L105.83127,38.064 L105.83127,14.0565 Z" id="Fill-4" fill="#8FC641"></path>
            <polygon id="Fill-5" fill="#7D8473" points="78.4116667 54.012 79.4740984 54.012 79.4740984 47.565 81.3990984 47.565 81.3990984 46.6515 76.4761475 46.6515 76.4761475 47.565 78.4116667 47.565"></polygon>
            <path d="M85.0387158,48.153 C84.1551093,48.153 83.6186339,48.615 83.4082514,48.8565 L83.3661749,48.8565 L83.3661749,46.0425 L82.3247814,46.0425 L82.3247814,54.012 L83.3661749,54.012 L83.3661749,49.9695 C83.5660383,49.5075 84.0709563,49.0665 84.7441803,49.0665 C85.4594809,49.0665 85.806612,49.539 85.806612,50.232 L85.806612,54.012 L86.8480055,54.012 L86.8480055,50.043 C86.8480055,48.8355 86.1537432,48.153 85.0387158,48.153 Z" id="Fill-6" fill="#7D8473"></path>
            <path d="M92.2232787,52.7625 C91.9813388,52.983 91.4869399,53.235 90.8978689,53.235 C89.7933607,53.235 89.2568852,52.6995 89.1937705,51.429 L92.8123497,51.429 C92.8544262,51.0405 92.8649454,50.7045 92.8649454,50.421 C92.8649454,49.035 92.0970492,48.132 90.6980055,48.132 C89.2989617,48.132 88.1628962,49.077 88.1628962,51.1035 C88.1628962,53.2035 89.067541,54.096 90.7716393,54.096 C91.6868033,54.096 92.2758743,53.8545 92.6861202,53.5395 L92.2232787,52.7625 Z M90.6348907,48.9825 C91.4764208,48.9825 91.8656284,49.476 91.8656284,50.3685 C91.8656284,50.442 91.8656284,50.547 91.8551093,50.652 L89.2148087,50.652 C89.2674044,49.4655 89.8985519,48.9825 90.6348907,48.9825 Z" id="Fill-7" fill="#7D8473"></path>
            <path d="M98.1350273,50.2845 C98.1350273,48.132 98.860847,47.4705 99.9337978,47.4705 C101.069863,47.4705 101.785164,48.2055 101.785164,50.3685 C101.785164,52.5105 101.090902,53.193 99.9863934,53.193 C98.860847,53.193 98.1350273,52.458 98.1350273,50.2845 Z M102.879153,50.295 C102.879153,47.5755 101.774645,46.5465 100.007432,46.5465 C98.2296995,46.5465 97.0515574,47.67 97.0515574,50.3685 C97.0515574,53.0985 98.1350273,54.117 99.9127596,54.117 C101.701011,54.117 102.879153,53.004 102.879153,50.295 Z" id="Fill-8" fill="#7D8473"></path>
            <path d="M108.959208,50.883 C108.959208,49.035 108.117678,48.132 106.813306,48.132 C106.076967,48.132 105.603607,48.4575 105.340628,48.7935 L105.298552,48.7935 L105.07765,48.237 L104.309754,48.237 L104.309754,56.049 L105.340628,56.049 L105.340628,53.9385 C105.624645,53.991 105.940219,54.0225 106.245273,54.0225 C107.833661,54.0225 108.959208,52.941 108.959208,50.883 Z M105.330109,53.004 L105.330109,49.6965 C105.529973,49.3605 105.91918,49.0035 106.51877,49.0035 C107.234071,49.0035 107.896776,49.5075 107.896776,50.9985 C107.896776,52.479 107.297186,53.1405 106.16112,53.1405 C105.950738,53.1405 105.572049,53.0985 105.330109,53.004 Z" id="Fill-9" fill="#7D8473"></path>
            <path d="M114.050464,52.7625 C113.808525,52.983 113.314126,53.235 112.725055,53.235 C111.620546,53.235 111.084071,52.6995 111.020956,51.429 L114.639536,51.429 C114.681612,51.0405 114.692131,50.7045 114.692131,50.421 C114.692131,49.035 113.924235,48.132 112.525191,48.132 C111.126148,48.132 109.990082,49.077 109.990082,51.1035 C109.990082,53.2035 110.894727,54.096 112.598825,54.096 C113.513989,54.096 114.10306,53.8545 114.513306,53.5395 L114.050464,52.7625 Z M112.462077,48.9825 C113.303607,48.9825 113.692814,49.476 113.692814,50.3685 C113.692814,50.442 113.692814,50.547 113.682295,50.652 L111.041995,50.652 C111.09459,49.4655 111.725738,48.9825 112.462077,48.9825 Z" id="Fill-10" fill="#7D8473"></path>
            <path d="M120.624918,50.022 C120.60388,48.741 119.920137,48.111 118.773552,48.111 C117.963579,48.111 117.374508,48.552 117.153607,48.825 L117.11153,48.825 L116.901148,48.237 L116.101694,48.237 L116.101694,54.012 L117.143087,54.012 L117.143087,49.9485 C117.332432,49.4235 117.826831,49.014 118.468497,49.014 C119.194317,49.014 119.583525,49.4655 119.583525,50.253 L119.583525,54.012 L120.624918,54.012 L120.624918,50.022 Z" id="Fill-11" fill="#7D8473"></path>
            <path d="M127.241448,53.1825 C126.347322,53.1825 125.747732,52.7625 125.358525,52.437 L124.737896,53.3085 C125.116585,53.655 125.916038,54.117 127.125738,54.117 C128.78776,54.117 129.681885,53.151 129.681885,52.0485 C129.681885,49.749 126.200055,50.0535 126.200055,48.51 C126.200055,47.922 126.652377,47.4915 127.420273,47.4915 C128.082978,47.4915 128.524781,47.775 128.840355,48.048 L129.492541,47.2395 C129.134891,46.9035 128.440628,46.5465 127.493907,46.5465 C126.105383,46.5465 125.127104,47.4285 125.127104,48.5835 C125.127104,50.904 128.598415,50.589 128.598415,52.1115 C128.598415,52.71 128.135574,53.1825 127.241448,53.1825 Z" id="Fill-12" fill="#7D8473"></path>
            <path d="M131.743634,51.0825 C131.743634,49.6755 132.132842,48.993 133.11112,48.993 C134.131475,48.993 134.541721,49.707 134.541721,51.156 C134.541721,52.563 134.184071,53.2455 133.174235,53.2455 C132.164399,53.2455 131.743634,52.521 131.743634,51.0825 Z M133.11112,54.1065 C134.92041,54.1065 135.614672,52.878 135.614672,51.093 C135.614672,49.3185 135.004563,48.132 133.174235,48.132 C131.364945,48.132 130.670683,49.3605 130.670683,51.1455 C130.670683,52.92 131.280792,54.1065 133.11112,54.1065 Z" id="Fill-13" fill="#7D8473"></path>
            <path d="M136.929563,52.164 C136.950601,53.4975 137.592268,54.1275 138.791448,54.1275 C139.685574,54.1275 140.190492,53.7075 140.411393,53.4345 L140.45347,53.4345 L140.621776,54.012 L141.473825,54.012 L141.473825,48.237 L140.432432,48.237 L140.432432,52.08 C140.390355,52.7835 139.885437,53.2665 139.107022,53.2665 C138.349645,53.2665 137.970956,52.8465 137.970956,51.996 L137.970956,48.237 L136.929563,48.237 L136.929563,52.164 Z" id="Fill-14" fill="#7D8473"></path>
            <path d="M146.207432,48.1845 C146.081202,48.153 145.891858,48.132 145.649918,48.132 C144.955656,48.132 144.440219,48.4785 144.18776,48.9405 L144.145683,48.9405 L143.924781,48.237 L143.125328,48.237 L143.125328,54.012 L144.156202,54.012 L144.156202,49.8225 C144.450738,49.3815 145.01877,49.161 145.555246,49.161 C145.765628,49.161 145.997049,49.1925 146.207432,49.245 L146.207432,48.1845 Z" id="Fill-15" fill="#7D8473"></path>
            <path d="M146.607158,51.198 C146.607158,53.277 147.543361,54.1065 149.005519,54.1065 C150.067951,54.1065 150.572268,53.718 150.835246,53.403 L150.183661,52.731 C149.973279,52.9935 149.626148,53.2245 149.100191,53.2245 C148.206066,53.2245 147.680109,52.605 147.680109,51.093 C147.680109,49.581 148.248142,49.0245 149.100191,49.0245 C149.668224,49.0245 150.004836,49.3185 150.19418,49.5285 L150.887842,48.804 C150.624863,48.4785 150.057432,48.132 149.131749,48.132 C147.66959,48.132 146.607158,49.098 146.607158,51.198 Z" id="Fill-16" fill="#7D8473"></path>
            <path d="M155.726639,52.7625 C155.484699,52.983 154.990301,53.235 154.40123,53.235 C153.296721,53.235 152.760246,52.6995 152.697131,51.429 L156.31571,51.429 C156.357787,51.0405 156.368306,50.7045 156.368306,50.421 C156.368306,49.035 155.60041,48.132 154.201366,48.132 C152.802322,48.132 151.666257,49.077 151.666257,51.1035 C151.666257,53.2035 152.570902,54.096 154.275,54.096 C155.190164,54.096 155.779235,53.8545 156.189481,53.5395 L155.726639,52.7625 Z M154.138251,48.9825 C154.979781,48.9825 155.368989,49.476 155.368989,50.3685 C155.368989,50.442 155.368989,50.547 155.35847,50.652 L152.718169,50.652 C152.770765,49.4655 153.401913,48.9825 154.138251,48.9825 Z" id="Fill-17" fill="#7D8473"></path>
            <path d="M160.554918,50.3895 C160.554918,52.6365 161.428005,54.117 163.521311,54.117 C164.636339,54.117 165.320082,53.76 165.635656,53.424 L165.046585,52.6785 C164.794126,52.9305 164.373361,53.172 163.647541,53.172 C162.322131,53.172 161.638388,52.164 161.638388,50.316 C161.638388,48.363 162.343169,47.481 163.552869,47.481 C164.320765,47.481 164.731011,47.754 165.015027,48.027 L165.69877,47.229 C165.46735,47.019 164.85724,46.5465 163.637022,46.5465 C161.61735,46.5465 160.554918,48.006 160.554918,50.3895 Z" id="Fill-18" fill="#7D8473"></path>
            <path d="M167.550137,51.0825 C167.550137,49.6755 167.939344,48.993 168.917623,48.993 C169.937978,48.993 170.348224,49.707 170.348224,51.156 C170.348224,52.563 169.990574,53.2455 168.980738,53.2455 C167.970902,53.2455 167.550137,52.521 167.550137,51.0825 Z M168.917623,54.1065 C170.726913,54.1065 171.421175,52.878 171.421175,51.093 C171.421175,49.3185 170.811066,48.132 168.980738,48.132 C167.171448,48.132 166.477186,49.3605 166.477186,51.1455 C166.477186,52.92 167.087295,54.1065 168.917623,54.1065 Z" id="Fill-19" fill="#7D8473"></path>
            <path d="M177.290847,50.022 C177.269809,48.741 176.586066,48.111 175.439481,48.111 C174.629508,48.111 174.040437,48.552 173.819536,48.825 L173.777459,48.825 L173.567077,48.237 L172.767623,48.237 L172.767623,54.012 L173.809016,54.012 L173.809016,49.9485 C173.998361,49.4235 174.49276,49.014 175.134426,49.014 C175.860246,49.014 176.249454,49.4655 176.249454,50.253 L176.249454,54.012 L177.290847,54.012 L177.290847,50.022 Z" id="Fill-20" fill="#7D8473"></path>
            <path d="M180.62541,54.0645 C181.403825,54.0645 181.803552,53.907 182.013934,53.7705 L181.740437,52.962 C181.561612,53.088 181.288115,53.1825 180.877869,53.1825 C180.404508,53.1825 180.109973,52.9305 180.109973,52.3635 L180.109973,49.056 L181.656284,49.056 L181.656284,48.237 L180.109973,48.237 L180.109973,46.7355 L179.41571,46.7355 L179.079098,48.195 L178.258607,48.405 L178.258607,49.056 L179.079098,49.056 L179.079098,52.3845 C179.079098,53.5605 179.65765,54.0645 180.62541,54.0645 Z" id="Fill-21" fill="#7D8473"></path>
            <path d="M185.884973,52.6155 C185.653552,52.9725 185.19071,53.298 184.612158,53.298 C184.023087,53.298 183.696995,52.9305 183.696995,52.479 C183.696995,51.723 184.612158,51.408 185.884973,51.471 L185.884973,52.6155 Z M184.801503,48.1425 C183.581284,48.1425 183.02377,48.846 182.813388,49.1295 L183.560246,49.707 C183.728552,49.413 184.075683,49.0245 184.780464,49.0245 C185.464208,49.0245 185.884973,49.2765 185.884973,50.127 L185.884973,50.7045 C183.907377,50.652 182.66612,51.2715 182.66612,52.5735 C182.66612,53.361 183.26571,54.117 184.34918,54.117 C185.285383,54.117 185.737705,53.697 186.000683,53.382 L186.04276,53.382 C186.190027,53.7705 186.526639,54.0645 187.094672,54.0645 C187.24194,54.0645 187.399727,54.033 187.536475,53.9595 L187.536475,53.214 L187.378689,53.214 C187.010519,53.214 186.863251,52.9305 186.863251,52.4685 L186.863251,49.9485 C186.863251,48.678 186.105874,48.1425 184.801503,48.1425 Z" id="Fill-22" fill="#7D8473"></path>
            <path d="M188.409563,51.198 C188.409563,53.277 189.345765,54.1065 190.807923,54.1065 C191.870355,54.1065 192.375273,53.718 192.638251,53.403 L191.986066,52.731 C191.775683,52.9935 191.428552,53.2245 190.902596,53.2245 C190.00847,53.2245 189.482514,52.605 189.482514,51.093 C189.482514,49.581 190.050546,49.0245 190.902596,49.0245 C191.470628,49.0245 191.80724,49.3185 191.996585,49.5285 L192.690847,48.804 C192.427869,48.4785 191.859836,48.132 190.934153,48.132 C189.471995,48.132 188.409563,49.098 188.409563,51.198 Z" id="Fill-23" fill="#7D8473"></path>
            <path d="M195.488934,54.0645 C196.26735,54.0645 196.667077,53.907 196.877459,53.7705 L196.603962,52.962 C196.425137,53.088 196.151639,53.1825 195.741393,53.1825 C195.268033,53.1825 194.973497,52.9305 194.973497,52.3635 L194.973497,49.056 L196.519809,49.056 L196.519809,48.237 L194.973497,48.237 L194.973497,46.7355 L194.279235,46.7355 L193.942623,48.195 L193.122131,48.405 L193.122131,49.056 L193.942623,49.056 L193.942623,52.3845 C193.942623,53.5605 194.521175,54.0645 195.488934,54.0645 Z" id="Fill-24" fill="#7D8473"></path>
            <path d="M200.632787,50.3895 C200.632787,52.6365 201.505874,54.117 203.59918,54.117 C204.714208,54.117 205.397951,53.76 205.713525,53.424 L205.124454,52.6785 C204.871995,52.9305 204.45123,53.172 203.72541,53.172 C202.4,53.172 201.716257,52.164 201.716257,50.316 C201.716257,48.363 202.421038,47.481 203.630738,47.481 C204.398634,47.481 204.80888,47.754 205.092896,48.027 L205.776639,47.229 C205.545219,47.019 204.935109,46.5465 203.714891,46.5465 C201.695219,46.5465 200.632787,48.006 200.632787,50.3895 Z" id="Fill-25" fill="#7D8473"></path>
            <path d="M210.657514,52.7625 C210.415574,52.983 209.921175,53.235 209.332104,53.235 C208.227596,53.235 207.69112,52.6995 207.628005,51.429 L211.246585,51.429 C211.288661,51.0405 211.29918,50.7045 211.29918,50.421 C211.29918,49.035 210.531284,48.132 209.13224,48.132 C207.733197,48.132 206.597131,49.077 206.597131,51.1035 C206.597131,53.2035 207.501776,54.096 209.205874,54.096 C210.121038,54.096 210.710109,53.8545 211.120355,53.5395 L210.657514,52.7625 Z M209.069126,48.9825 C209.910656,48.9825 210.299863,49.476 210.299863,50.3685 C210.299863,50.442 210.299863,50.547 210.289344,50.652 L207.649044,50.652 C207.701639,49.4655 208.332787,48.9825 209.069126,48.9825 Z" id="Fill-26" fill="#7D8473"></path>
            <path d="M217.231967,50.022 C217.210929,48.741 216.527186,48.111 215.380601,48.111 C214.570628,48.111 213.981557,48.552 213.760656,48.825 L213.718579,48.825 L213.508197,48.237 L212.708743,48.237 L212.708743,54.012 L213.750137,54.012 L213.750137,49.9485 C213.939481,49.4235 214.43388,49.014 215.075546,49.014 C215.801366,49.014 216.190574,49.4655 216.190574,50.253 L216.190574,54.012 L217.231967,54.012 L217.231967,50.022 Z" id="Fill-27" fill="#7D8473"></path>
            <path d="M220.56653,54.0645 C221.344945,54.0645 221.744672,53.907 221.955055,53.7705 L221.681557,52.962 C221.502732,53.088 221.229235,53.1825 220.818989,53.1825 C220.345628,53.1825 220.051093,52.9305 220.051093,52.3635 L220.051093,49.056 L221.597404,49.056 L221.597404,48.237 L220.051093,48.237 L220.051093,46.7355 L219.356831,46.7355 L219.020219,48.195 L218.199727,48.405 L218.199727,49.056 L219.020219,49.056 L219.020219,52.3845 C219.020219,53.5605 219.59877,54.0645 220.56653,54.0645 Z" id="Fill-28" fill="#7D8473"></path>
            <path d="M226.678142,52.7625 C226.436202,52.983 225.941803,53.235 225.352732,53.235 C224.248224,53.235 223.711749,52.6995 223.648634,51.429 L227.267213,51.429 C227.30929,51.0405 227.319809,50.7045 227.319809,50.421 C227.319809,49.035 226.551913,48.132 225.152869,48.132 C223.753825,48.132 222.61776,49.077 222.61776,51.1035 C222.61776,53.2035 223.522404,54.096 225.226503,54.096 C226.141667,54.096 226.730738,53.8545 227.140984,53.5395 L226.678142,52.7625 Z M225.089754,48.9825 C225.931284,48.9825 226.320492,49.476 226.320492,50.3685 C226.320492,50.442 226.320492,50.547 226.309973,50.652 L223.669672,50.652 C223.722268,49.4655 224.353415,48.9825 225.089754,48.9825 Z" id="Fill-29" fill="#7D8473"></path>
            <path d="M231.811475,48.1845 C231.685246,48.153 231.495902,48.132 231.253962,48.132 C230.559699,48.132 230.044262,48.4785 229.791803,48.9405 L229.749727,48.9405 L229.528825,48.237 L228.729372,48.237 L228.729372,54.012 L229.760246,54.012 L229.760246,49.8225 C230.054781,49.3815 230.622814,49.161 231.15929,49.161 C231.369672,49.161 231.601093,49.1925 231.811475,49.245 L231.811475,48.1845 Z" id="Fill-30" fill="#7D8473"></path>
            <path d="M237.691667,53.1825 C236.797541,53.1825 236.197951,52.7625 235.808743,52.437 L235.188115,53.3085 C235.566803,53.655 236.366257,54.117 237.575956,54.117 C239.237978,54.117 240.132104,53.151 240.132104,52.0485 C240.132104,49.749 236.650273,50.0535 236.650273,48.51 C236.650273,47.922 237.102596,47.4915 237.870492,47.4915 C238.533197,47.4915 238.975,47.775 239.290574,48.048 L239.94276,47.2395 C239.585109,46.9035 238.890847,46.5465 237.944126,46.5465 C236.555601,46.5465 235.577322,47.4285 235.577322,48.5835 C235.577322,50.904 239.048634,50.589 239.048634,52.1115 C239.048634,52.71 238.585792,53.1825 237.691667,53.1825 Z" id="Fill-31" fill="#7D8473"></path>
            <path d="M242.193852,51.0825 C242.193852,49.6755 242.58306,48.993 243.561339,48.993 C244.581694,48.993 244.99194,49.707 244.99194,51.156 C244.99194,52.563 244.63429,53.2455 243.624454,53.2455 C242.614617,53.2455 242.193852,52.521 242.193852,51.0825 Z M243.561339,54.1065 C245.370628,54.1065 246.064891,52.878 246.064891,51.093 C246.064891,49.3185 245.454781,48.132 243.624454,48.132 C241.815164,48.132 241.120902,49.3605 241.120902,51.1455 C241.120902,52.92 241.731011,54.1065 243.561339,54.1065 Z" id="Fill-32" fill="#7D8473"></path>
            <path d="M247.453415,46.0425 L247.453415,52.7835 C247.453415,53.6025 247.884699,54.096 248.72623,54.096 C248.989208,54.096 249.252186,54.0435 249.462568,53.9595 L249.462568,53.109 C249.367896,53.1405 249.241667,53.193 249.052322,53.193 C248.663115,53.193 248.48429,52.9935 248.48429,52.5105 L248.48429,46.0425 L247.453415,46.0425 Z" id="Fill-33" fill="#7D8473"></path>
            <path d="M250.493443,52.164 C250.514481,53.4975 251.156148,54.1275 252.355328,54.1275 C253.249454,54.1275 253.754372,53.7075 253.975273,53.4345 L254.01735,53.4345 L254.185656,54.012 L255.037705,54.012 L255.037705,48.237 L253.996311,48.237 L253.996311,52.08 C253.954235,52.7835 253.449317,53.2665 252.670902,53.2665 C251.913525,53.2665 251.534836,52.8465 251.534836,51.996 L251.534836,48.237 L250.493443,48.237 L250.493443,52.164 Z" id="Fill-34" fill="#7D8473"></path>
            <path d="M258.393306,54.0645 C259.171721,54.0645 259.571448,53.907 259.781831,53.7705 L259.508333,52.962 C259.329508,53.088 259.056011,53.1825 258.645765,53.1825 C258.172404,53.1825 257.877869,52.9305 257.877869,52.3635 L257.877869,49.056 L259.42418,49.056 L259.42418,48.237 L257.877869,48.237 L257.877869,46.7355 L257.183607,46.7355 L256.846995,48.195 L256.026503,48.405 L256.026503,49.056 L256.846995,49.056 L256.846995,52.3845 C256.846995,53.5605 257.425546,54.0645 258.393306,54.0645 Z" id="Fill-35" fill="#7D8473"></path>
            <path d="M260.959973,54.012 L262.001366,54.012 L262.001366,48.237 L260.959973,48.237 L260.959973,54.012 Z M260.760109,46.6095 C260.760109,46.9875 261.065164,47.2815 261.443852,47.2815 C261.843579,47.2815 262.138115,46.9875 262.138115,46.6095 C262.138115,46.2 261.843579,45.906 261.443852,45.906 C261.065164,45.906 260.760109,46.2 260.760109,46.6095 Z" id="Fill-36" fill="#7D8473"></path>
            <path d="M264.578552,51.0825 C264.578552,49.6755 264.96776,48.993 265.946038,48.993 C266.966393,48.993 267.376639,49.707 267.376639,51.156 C267.376639,52.563 267.018989,53.2455 266.009153,53.2455 C264.999317,53.2455 264.578552,52.521 264.578552,51.0825 Z M265.946038,54.1065 C267.755328,54.1065 268.44959,52.878 268.44959,51.093 C268.44959,49.3185 267.839481,48.132 266.009153,48.132 C264.199863,48.132 263.505601,49.3605 263.505601,51.1455 C263.505601,52.92 264.11571,54.1065 265.946038,54.1065 Z" id="Fill-37" fill="#7D8473"></path>
            <path d="M274.319262,50.022 C274.298224,48.741 273.614481,48.111 272.467896,48.111 C271.657923,48.111 271.068852,48.552 270.847951,48.825 L270.805874,48.825 L270.595492,48.237 L269.796038,48.237 L269.796038,54.012 L270.837432,54.012 L270.837432,49.9485 C271.026776,49.4235 271.521175,49.014 272.162842,49.014 C272.888661,49.014 273.277869,49.4655 273.277869,50.253 L273.277869,54.012 L274.319262,54.012 L274.319262,50.022 Z" id="Fill-38" fill="#7D8473"></path>
            <path d="M229.862432,38.007 L227.501639,38.007 C227.367896,37.9935 227.343852,37.8285 227.322814,37.7025 C227.186066,36.8535 227.119945,35.9925 227.103415,35.1315 L227.101913,35.0955 C227.077869,35.136 227.052322,35.175 227.026776,35.214 C226.320492,36.2925 225.364754,37.2255 224.198634,37.773 C221.965574,38.8215 219.220082,38.7465 217.131284,37.98 C215.607514,37.422 214.280601,36.2955 213.685519,34.7655 C213.338388,33.8745 213.266257,32.8995 213.342896,31.9455 C213.446585,30.6585 213.956011,29.4375 214.946311,28.491 C216.689481,26.8245 219.272678,26.2485 221.735656,26.0445 C222.57418,25.974 223.414208,25.9305 224.25724,25.9275 L227.056831,25.9275 C227.056831,24.966 227.095902,23.9955 226.796858,23.103 C226.460246,22.095 225.647268,21.318 224.59235,20.8665 C222.966393,20.1705 221.098497,20.184 219.397404,20.628 C218.105055,20.9655 216.905874,21.624 215.882514,22.4895 C215.882514,22.4895 215.756284,22.5525 215.670628,22.473 L214.196448,20.748 C214.080738,20.5785 214.220492,20.5275 214.318169,20.4375 C215.431694,19.4025 216.829235,18.7155 218.301913,18.285 C219.431967,17.955 220.613115,17.7645 221.783743,17.766 C223.940164,17.778 226.170219,18.243 227.763115,19.7115 C229.132104,20.973 229.620492,22.9965 229.632514,24.8835 C229.64153,28.5045 229.552869,32.127 229.791803,35.736 C229.838388,36.4215 229.903005,37.1055 230.003689,37.7835 C230.003689,37.7835 230.050273,37.9875 229.862432,38.007 Z M254.287842,38.007 L251.758743,38.007 C251.671585,37.9965 251.620492,37.9485 251.60847,37.857 L251.60847,34.8405 C251.587432,34.872 251.567896,34.902 251.546858,34.9335 C249.872814,37.3755 246.580328,38.5575 243.66653,38.511 C241.286202,38.472 238.89235,37.716 237.068033,36.204 C235.487158,34.8945 234.367623,33.051 233.84918,31.074 C233.544126,29.916 233.44194,28.71 233.500546,27.5115 C233.647814,24.4995 235.054372,21.5295 237.50082,19.737 C241.25765,16.986 246.996585,17.1 250.407787,20.0625 C250.517486,20.1585 250.625683,20.259 250.729372,20.3625 C251.05847,20.688 251.351503,21.051 251.60847,21.438 L251.60847,9.5715 C251.60847,9.5715 251.637022,9.438 251.758743,9.4215 L254.287842,9.4215 C254.299863,9.423 254.313388,9.426 254.326913,9.4275 C254.390027,9.453 254.427596,9.501 254.438115,9.5715 L254.438115,37.857 C254.426093,37.944 254.378005,37.995 254.287842,38.007 Z M266.037705,17.766 C268.15806,17.7855 270.377596,18.3435 271.860792,19.9215 C272.296585,20.3835 272.65724,20.913 272.950273,21.4785 C272.950273,21.4785 273.013388,21.627 272.908197,21.705 L270.63306,23.052 C270.542896,23.091 270.530874,23.0745 270.499317,23.061 C270.40765,23.025 270.385109,22.9215 270.334016,22.83 C269.747951,21.801 268.85082,20.9175 267.740301,20.5755 C266.224044,20.1105 264.471858,20.286 263.182514,21.195 C262.437158,21.72 261.936749,22.5555 261.986339,23.493 C262.022404,24.159 262.31694,24.795 262.890984,25.191 C264.536475,26.328 266.769536,26.433 268.610383,26.889 C269.053689,27 269.490984,27.135 269.91776,27.2985 C271.130464,27.762 272.281557,28.509 272.929235,29.637 C273.396585,30.453 273.528825,31.4175 273.530328,32.346 C273.530328,33.4065 273.298907,34.4805 272.751913,35.3925 C271.44153,37.578 268.643443,38.5635 266.063251,38.5095 C263.634836,38.4585 261.132787,37.695 259.499317,36.0045 C259.143169,35.6355 258.829098,35.229 258.558607,34.797 C258.439891,34.6065 258.238525,34.4355 258.41735,34.284 L260.651913,32.769 C260.847268,32.6655 260.87582,32.8395 260.931421,32.943 C262.023907,34.944 264.438798,36.1215 266.796585,35.9235 C268.264754,35.8005 269.761475,35.085 270.431694,33.7335 C270.954645,32.679 270.772814,31.2675 269.815574,30.5535 C268.192623,29.3415 265.952049,29.211 264.070628,28.725 C263.64235,28.6155 263.220082,28.482 262.806831,28.3245 C261.585109,27.858 260.397951,27.1635 259.721721,26.0025 C259.284426,25.254 259.153689,24.369 259.152186,23.511 C259.152186,22.5885 259.349044,21.657 259.819399,20.856 C261.018579,18.813 263.474044,17.76 266.037705,17.766 Z M200.939344,17.7765 C202.907923,17.7915 204.871995,18.3765 206.517486,19.461 C208.295219,20.634 209.695765,22.374 210.451639,24.351 C210.499727,24.48 210.540301,24.54 210.418579,24.6255 L208.308743,25.8105 C208.250137,25.8345 208.24112,25.8285 208.24112,25.8285 L195.36571,33.129 C196.573907,34.4265 198.276503,35.2875 200.05724,35.4825 C201.660656,35.658 203.319672,35.307 204.709699,34.491 C206.186885,33.6225 207.348497,32.2455 207.957104,30.6435 C207.957104,30.6435 208.01571,30.465 208.181011,30.5295 L210.304372,31.635 C210.365984,31.677 210.405055,31.7145 210.373497,31.8255 C209.287022,34.479 207.034426,36.645 204.328005,37.611 C201.495355,38.6205 198.217896,38.301 195.637705,36.756 C193.428689,35.433 191.748634,33.2535 191.045355,30.7845 C190.265437,28.05 190.696721,24.999 192.203962,22.59 C194.016257,19.6935 197.293716,17.8095 200.822131,17.7765 L200.939344,17.7765 Z M142.376516,38.007 L139.847719,38.007 C139.767623,37.998 139.712322,37.9815 139.697596,37.8585 C139.651011,31.9695 139.616899,26.046 139.541913,20.2275 C139.538907,19.9965 139.537104,19.764 139.530342,19.533 C139.51832,19.1895 139.509153,19.1475 139.503443,19.0245 C139.496079,18.858 139.489617,18.69 139.487514,18.522 C139.48571,18.3825 139.472036,18.2895 139.637036,18.2715 L142.165833,18.2715 C142.165833,18.2715 142.195587,18.2745 142.229549,18.285 C142.384331,18.3795 142.326475,18.696 142.335642,18.957 C142.364795,19.818 142.339399,20.685 142.433169,21.525 L142.435423,21.5445 C142.454508,21.5085 142.474194,21.4725 142.49388,21.4365 C143.667964,19.3305 145.983224,17.967 148.457172,17.79 C150.142336,17.67 151.879645,17.8815 153.337295,18.7365 C154.993306,19.707 156.054235,21.4875 156.416393,23.3835 C156.599727,24.342 156.686885,25.317 156.688388,26.2875 L156.688388,37.857 C156.679372,37.938 156.661339,37.9935 156.538115,38.007 L154.009016,38.007 C153.929372,37.998 153.872268,37.98 153.858743,37.857 L153.858743,26.415 C153.854235,24.7845 153.682923,23.0895 152.653552,21.798 C151.15082,19.9095 147.86179,19.9605 145.746694,21.1935 C144.225328,22.08 143.235328,23.7285 142.81877,25.4415 C142.604481,26.3235 142.528593,27.2325 142.52679,28.14 L142.52679,37.857 C142.517623,37.938 142.49974,37.9935 142.376516,38.007 Z M165.751366,38.007 L163.222268,38.007 C163.135109,37.9965 163.084016,37.9485 163.071995,37.857 L163.071995,18.4215 C163.082514,18.3345 163.130601,18.2835 163.222268,18.2715 L165.751366,18.2715 C165.763388,18.273 165.776913,18.2745 165.788934,18.276 C165.852049,18.303 165.89112,18.3495 165.900137,18.4215 L165.900137,37.857 C165.889617,37.944 165.84153,37.995 165.751366,38.007 Z M189.234563,38.007 L172.545219,38.007 C172.45806,37.9965 172.406967,37.9485 172.394945,37.857 L172.394945,11.592 C172.405464,11.505 172.453552,11.454 172.545219,11.442 L175.326776,11.442 C175.338798,11.4435 175.352322,11.445 175.365847,11.4465 C175.428962,11.472 175.468033,11.52 175.477049,11.592 L175.477049,35.184 L189.234563,35.184 C189.236066,35.184 189.369809,35.2125 189.384836,35.334 L189.384836,37.857 C189.374317,37.944 189.32623,37.995 189.234563,38.007 Z M243.822814,20.3385 C242.168306,20.352 240.521311,20.8545 239.210929,21.8445 C235.934973,24.318 235.318852,29.7555 237.873497,33.105 C238.776639,34.29 240.068989,35.1705 241.502596,35.607 C245.278962,36.756 249.827732,34.89 251.369536,30.858 C252.370355,28.2435 251.794809,25.095 249.871311,22.968 C248.386612,21.327 246.221175,20.3715 243.983607,20.3385 L243.822814,20.3385 Z M227.056831,28.248 L224.425546,28.248 C222.598224,28.251 220.74235,28.395 219.065301,29.013 C218.026913,29.3955 217.003552,29.9775 216.483607,30.975 C215.778825,32.325 216.204098,34.167 217.553552,35.0895 C218.886475,36.0015 220.640164,36.0795 222.239071,35.796 C223.88306,35.505 225.435383,34.566 226.25888,33.0825 C226.871995,31.9815 227.055328,30.666 227.056831,29.4015 L227.056831,28.248 Z M200.840164,20.4525 C198.48388,20.475 196.196721,21.645 194.811202,23.517 C193.29194,25.5705 192.916257,28.3785 193.876503,30.792 L193.884016,30.81 L206.89918,23.4285 C206.867623,23.388 206.867623,23.388 206.834563,23.346 C205.428005,21.567 203.229508,20.4735 200.946858,20.4525 L200.840164,20.4525 Z M164.513115,10.4385 C165.315574,10.452 166.084973,10.953 166.385519,11.6895 C166.827322,12.777 166.176639,14.2035 164.972951,14.4735 C163.779781,14.7405 162.439344,13.824 162.439344,12.4815 C162.439344,11.4225 163.330464,10.4565 164.459016,10.4385 L164.513115,10.4385 Z" id="Fill-40" fill="#94988F"></path>
            <path d="M23.3855191,10.4025 C23.2057923,9.912 23.0761066,9.402 23.003224,8.8815 C22.6625546,6.456 23.5458607,3.8895 25.3154781,2.1855 C26.741571,0.8115 28.7045902,0.018 30.6853415,0 L30.7858743,0 C33.6658607,0.027 36.453429,1.7655 37.7310519,4.329 C38.663347,6.201 38.7835656,8.454 38.0852459,10.4235 L47.7078415,15.969 C47.8866667,15.7545 48.0773634,15.552 48.2794809,15.36 C49.6995628,14.0085 51.6235109,13.2255 53.6155328,13.206 L53.7162158,13.206 C56.5847814,13.233 59.379112,14.9625 60.6612432,17.5365 C61.7143579,19.65 61.7313388,22.2495 60.7030191,24.3795 C59.6305191,26.5995 57.4383333,28.203 54.9938388,28.656 L54.9938388,39.7515 C57.3867896,40.191 59.5714617,41.769 60.6612432,43.9575 C61.7143579,46.071 61.7313388,48.6705 60.7030191,50.799 C59.2362022,53.8365 55.6741257,55.7205 52.237377,55.0845 C50.4567896,54.7545 48.8412022,53.7465 47.6824454,52.362 L38.0532377,57.9105 C38.7740984,59.8695 38.6828825,62.1225 37.7726776,64.0065 C36.0840574,67.503 31.5624863,69.414 27.7404372,67.827 C25.2486066,66.792 23.378306,64.3875 23.003224,61.716 C22.825,60.4455 22.9824863,59.139 23.4263934,57.936 L13.8006421,52.389 C12.0329781,54.459 9.16321038,55.6005 6.3760929,55.0845 C3.18428962,54.4935 0.52295082,51.7215 0.0719808743,48.5085 C-0.272896175,46.0515 0.639562842,43.452 2.4520082,41.748 C3.55170765,40.713 4.94624317,40.0185 6.44206284,39.75 L6.44206284,28.6755 C6.41997268,28.671 6.39803279,28.668 6.3760929,28.6635 C3.18428962,28.0725 0.52295082,25.3005 0.0719808743,22.089 C-0.268538251,19.662 0.614617486,17.0955 2.38423497,15.3915 C3.80942623,14.019 5.7620765,13.2255 7.75409836,13.206 L7.85478142,13.206 C10.0894945,13.227 12.2785246,14.283 13.7418852,15.96 L23.3855191,10.4025 Z M30.7003689,55.215 C28.2488115,55.239 25.9228825,57.102 25.4233743,59.5365 C25.0609153,61.302 25.6529918,63.237 26.9486475,64.5 C28.4444672,65.958 30.8154781,66.444 32.7837568,65.64 C35.0760246,64.7055 36.531571,62.0505 36.0610656,59.6025 C35.6004781,57.2055 33.3803415,55.272 30.8410246,55.2165 C30.7941393,55.215 30.7472541,55.215 30.7003689,55.215 Z M23.2925,47.01 C21.3132514,48.258 18.7534973,48.642 16.4490574,47.7015 C16.1566257,47.583 15.8729098,47.4435 15.5997131,47.2875 C15.6174454,48.333 15.4309563,49.383 15.0394945,50.352 L24.5753825,55.848 C24.8200273,55.53 25.0897678,55.23 25.3831011,54.954 C25.8496995,54.516 26.3694945,54.138 26.927459,53.8275 C25.0248497,52.6815 23.6501503,50.667 23.3407377,48.462 C23.2731148,47.9805 23.258388,47.493 23.2925,47.01 Z M38.1838251,47.082 C38.2383743,48.3075 37.9994399,49.5465 37.4656694,50.652 C36.8215984,51.9855 35.7468443,53.0775 34.4559973,53.8125 C35.3864891,54.321 36.2188525,55.011 36.8805055,55.836 L46.4381831,50.328 C46.1939891,49.7475 46.0214754,49.137 45.9334153,48.5085 C45.873306,48.081 45.8515164,47.649 45.8659426,47.217 C43.9260656,48.3045 41.5072678,48.5895 39.3272541,47.685 C38.9281284,47.5185 38.5456831,47.316 38.1838251,47.082 Z M31.6790984,41.748 L31.6790984,52.8975 C31.853265,52.92 32.0265301,52.9485 32.1985929,52.983 C32.4408333,52.9215 32.6794672,52.8435 32.9126913,52.749 C34.756694,51.996 36.1491257,50.2275 36.4378005,48.261 C36.7940984,45.834 35.411735,43.251 33.1693579,42.2055 C32.6973497,41.985 32.1928825,41.832 31.6790984,41.748 Z M29.975,41.724 C27.6311885,42.066 25.5691393,43.9245 25.0894672,46.2615 C24.7044672,48.138 25.3338115,50.1945 26.7104645,51.537 C27.4265164,52.2345 28.331612,52.722 29.3008743,52.9695 C29.5235792,52.9275 29.748388,52.896 29.975,52.872 L29.975,41.724 Z M7.76927596,42.009 C5.31967213,42.0315 2.99269126,43.8915 2.49228142,46.329 C2.1298224,48.096 2.72189891,50.0295 4.01740437,51.2925 C5.51427596,52.752 7.88919399,53.235 9.85251366,52.434 C12.1446311,51.498 13.6003279,48.8445 13.1298224,46.3965 C12.6693852,43.9995 10.4490984,42.066 7.90993169,42.009 C7.86304645,42.009 7.8161612,42.0075 7.76927596,42.009 Z M53.6307104,42.009 C51.1920765,42.0315 48.8733607,43.875 48.3604781,46.2975 C47.984194,48.0735 48.5761202,50.0235 49.8788388,51.2925 C51.3755601,52.752 53.7506284,53.235 55.7139481,52.434 C58.0060656,51.498 59.461612,48.8445 58.9912568,46.3965 C58.5309699,43.9995 56.3105328,42.066 53.7712158,42.009 C53.7244809,42.009 53.6775956,42.0075 53.6307104,42.009 Z M24.5469809,38.514 L14.8603689,44.082 C14.977582,44.328 15.0808197,44.5815 15.1702322,44.8395 C15.1951776,44.865 15.2204235,44.8905 15.2459699,44.916 C16.836612,46.4655 19.3563934,46.9815 21.4481967,46.128 C23.8776639,45.1365 25.418265,42.3345 24.9378415,39.7455 C24.8586475,39.3195 24.725806,38.9055 24.5469809,38.514 Z M36.9245355,38.4885 C36.7560792,38.8545 36.6272951,39.24 36.5452459,39.6405 C36.1600956,41.517 36.7897404,43.5735 38.1662432,44.916 C39.7568852,46.4655 42.2765164,46.9815 44.3684699,46.128 C45.1151776,45.8235 45.7878005,45.351 46.3430601,44.7675 C46.4293169,44.5305 46.526694,44.298 46.6347404,44.07 L36.9245355,38.4885 Z M23.6187432,37.0845 C22.5620219,35.8815 21.0197678,35.085 19.3828415,35.0475 L19.2337705,35.0475 C16.6284836,35.0715 14.1555874,37.0545 13.6249727,39.6405 C13.4386339,40.548 13.4897268,41.4975 13.7478962,42.3885 C13.8191257,42.4695 13.8885519,42.5535 13.9563251,42.6375 L23.6187432,37.0845 Z M47.7386475,42.354 C47.8061202,42.12 47.8581148,41.8815 47.893429,41.64 C48.3484563,38.541 45.8996038,35.292 42.5987022,35.061 C42.4506831,35.0505 42.3025137,35.046 42.1540437,35.0475 C40.5229781,35.0625 38.9439071,35.8455 37.8607377,37.0635 L47.5243579,42.618 C47.5939344,42.528 47.6653142,42.4395 47.7386475,42.354 Z M11.8072678,27.6435 C10.8993169,28.185 9.88346995,28.554 8.82780055,28.707 L8.82780055,39.7005 C9.87851093,39.8505 10.8964617,40.221 11.8080191,40.7685 C11.8302596,38.787 12.6558607,36.8145 14.0875137,35.436 C14.6003962,34.9425 15.1842077,34.527 15.8147541,34.1985 C13.7309153,33.0975 12.2042896,30.972 11.8760929,28.6335 C11.8301093,28.3065 11.807418,27.975 11.8072678,27.6435 Z M49.6469672,27.6495 C49.6394536,28.7445 49.3979645,29.838 48.9214481,30.825 C48.2189208,32.2785 47.004112,33.4455 45.5547268,34.176 C46.9471585,34.887 48.1262022,36.015 48.8407514,37.407 C49.3689617,38.436 49.6379508,39.5895 49.6469672,40.743 C50.549959,40.206 51.5611475,39.849 52.6081011,39.702 L52.6081011,28.722 C52.4844262,28.7055 52.3609016,28.686 52.237377,28.6635 C51.3163525,28.4925 50.4393579,28.1415 49.6469672,27.6495 Z M29.975,39.8655 L29.975,35.394 L26.1221448,37.608 C26.3033743,37.857 26.505041,38.091 26.7260929,38.307 C27.6018852,39.1605 28.7615437,39.6975 29.975,39.8655 Z M35.3532787,37.5855 L31.6790984,35.4735 L31.6790984,39.8535 C32.0968579,39.7875 32.5084563,39.675 32.904276,39.5145 C33.88,39.1155 34.7287432,38.4315 35.3532787,37.5855 Z M25.4855874,31.9125 C25.3193852,32.2755 25.1924044,32.6565 25.1112568,33.0525 C24.9040301,34.062 24.9917896,35.124 25.3329098,36.099 L29.0506694,33.9615 L25.4855874,31.9125 Z M35.9506148,31.959 L32.4654781,33.9615 L36.1555874,36.0825 C36.275806,35.7465 36.3637158,35.3985 36.4157104,35.0445 C36.5701913,33.9915 36.3882104,32.922 35.9506148,31.959 Z M14.2159973,25.4355 C14.0600137,25.6545 13.892459,25.866 13.714235,26.067 C13.680123,26.1885 13.6503689,26.31 13.6249727,26.4345 C13.2399727,28.3095 13.8691667,30.3675 15.2459699,31.7085 C16.836612,33.2595 19.3563934,33.774 21.4481967,32.9205 C22.4228689,32.523 23.2543306,31.8345 23.8698497,30.984 L14.2159973,25.4355 Z M47.2944399,25.4385 L37.573265,31.026 C37.7517896,31.269 37.9496995,31.4985 38.1662432,31.7085 C39.7568852,33.2595 42.2765164,33.774 44.3684699,32.9205 C46.2124727,32.169 47.6049044,30.4005 47.893429,28.434 C48.0189071,27.579 47.9230328,26.712 47.6490847,25.9005 C47.5254098,25.7505 47.4069945,25.596 47.2944399,25.4385 Z M29.975,28.533 C28.614276,28.7355 27.3387568,29.4555 26.4210383,30.4875 L29.975,32.5305 L29.975,28.533 Z M31.6790984,28.5555 L31.6790984,32.451 L35.0377049,30.5205 C34.1894126,29.5215 33.019235,28.788 31.6790984,28.5555 Z M46.3659016,23.73 C45.4113661,22.6815 44.0922678,21.9585 42.5987022,21.855 C42.4506831,21.8445 42.3025137,21.84 42.1538934,21.84 C39.549959,21.8655 37.0757104,23.8485 36.5452459,26.4345 C36.3351639,27.4575 36.4269809,28.5345 36.7775683,29.5215 L46.4587705,23.9565 C46.426612,23.8815 46.3956557,23.805 46.3659016,23.73 Z M24.6688525,29.481 C25.0104235,28.5435 25.1210246,27.5265 24.9378415,26.5395 C24.4608743,23.97 22.0473361,21.9 19.3829918,21.8415 C19.3332514,21.84 19.2835109,21.84 19.2336202,21.84 C17.7074454,21.855 16.2259016,22.542 15.154153,23.6295 C15.116735,23.7345 15.0769126,23.8395 15.0348361,23.943 L24.6688525,29.481 Z M29.2998224,15.4455 C27.2353689,16.014 25.5055738,17.745 25.0824044,19.8765 C24.7115301,21.7425 25.3416257,23.781 26.7104645,25.116 C27.5904645,25.974 28.7558333,26.514 29.975,26.682 L29.975,15.5325 C29.7495902,15.513 29.5243306,15.4845 29.2998224,15.4455 Z M32.1019672,15.4125 C31.9617623,15.4395 31.820806,15.4635 31.6790984,15.483 L31.6790984,26.6685 C32.0998634,26.604 32.5141667,26.49 32.9126913,26.328 C34.756694,25.575 36.1491257,23.8065 36.4378005,21.8415 C36.7940984,19.413 35.411735,16.83 33.1693579,15.7845 C32.8276366,15.6255 32.4689344,15.501 32.1019672,15.4125 Z M7.76927596,15.588 C5.31937158,15.6105 2.99269126,17.4705 2.49228142,19.9095 C2.1298224,21.675 2.72189891,23.61 4.01740437,24.8715 C5.51442623,26.331 7.88904372,26.814 9.85251366,26.013 C12.1444809,25.077 13.6003279,22.4235 13.1298224,19.9755 C12.6690847,17.577 10.4498497,15.645 7.90978142,15.588 L7.76927596,15.588 Z M53.6307104,15.588 C51.1919262,15.6105 48.8735109,17.454 48.3604781,19.8765 C47.984194,21.6525 48.5761202,23.6025 49.8788388,24.8715 C51.3757104,26.331 53.7504781,26.814 55.7139481,26.013 C58.0059153,25.077 59.461612,22.4235 58.9912568,19.9755 C58.5306694,17.577 56.3112842,15.645 53.7712158,15.588 L53.6307104,15.588 Z M24.5325546,12.492 L15.0038798,17.9835 C15.4151776,18.969 15.6141393,20.04 15.6001639,21.108 C16.6971585,20.493 17.9495355,20.151 19.2229508,20.139 L19.319276,20.139 C20.720123,20.1525 22.0994809,20.589 23.277623,21.339 C23.1930191,19.2225 24.0414617,17.0745 25.5844672,15.606 C25.9915574,15.2175 26.443429,14.8785 26.9273087,14.595 C25.9972678,14.067 25.1808333,13.3425 24.5325546,12.492 Z M36.9332514,12.5085 C36.2648361,13.3545 35.413388,14.055 34.4556967,14.571 C35.6918443,15.285 36.7326366,16.3365 37.385123,17.607 C37.9687842,18.744 38.2359699,20.0325 38.1854781,21.3075 C39.3588115,20.5665 40.7381694,20.1525 42.143224,20.139 L42.2393989,20.139 C43.509959,20.151 44.7618852,20.511 45.8620355,21.135 C45.8501639,20.067 46.0638525,18.996 46.4742486,18.0075 L36.9332514,12.5085 Z M30.7003689,2.3805 C28.2415984,2.4045 25.9213798,4.275 25.4233743,6.702 C25.0609153,8.4675 25.6529918,10.4025 26.9486475,11.6655 C28.4455191,13.125 30.8202869,13.608 32.7836066,12.807 C35.0755738,11.871 36.531571,9.2175 36.0610656,6.768 C35.6000273,4.3695 33.3499863,2.4375 30.8410246,2.382 C30.7941393,2.3805 30.7472541,2.3805 30.7003689,2.3805 Z" id="Fill-42" fill="#898B85"></path>
        </g>
    </g>
</svg>