<?xml version="1.0" encoding="UTF-8" standalone="no"?>
<svg width="269px" height="63px" viewBox="0 0 269 63" version="1.1" xmlns="http://www.w3.org/2000/svg" xmlns:xlink="http://www.w3.org/1999/xlink">
    <!-- Generator: Sketch 43.2 (39069) - http://www.bohemiancoding.com/sketch -->
    <title>ic_logo</title>
    <desc>Created with Sketch.</desc>
    <defs></defs>
    <g id="Page-1" stroke="none" stroke-width="1" fill="none" fill-rule="evenodd">
        <g id="Group-2-Copy">
            <path d="M83.51895,44.0835 C81.57345,44.0835 79.7901,43.7472 78.16875,43.0746 C76.5474,42.40215 75.14235,41.4714 73.9533,40.28235 C72.7644,39.09345 71.83965,37.67625 71.1792,36.03105 C70.5186,34.3857 70.1883,32.6022 70.1883,30.6807 C70.1883,28.7592 70.5186,26.9757 71.1792,25.33035 C71.83965,23.68515 72.7644,22.26795 73.9533,21.07905 C75.14235,19.89 76.5474,18.95925 78.16875,18.2868 C79.7901,17.6142 81.57345,17.2779 83.51895,17.2779 C85.4646,17.2779 87.24795,17.6142 88.8693,18.2868 C90.49065,18.95925 91.8957,19.89 93.08475,21.07905 C94.27365,22.26795 95.1984,23.68515 95.85885,25.33035 C96.51945,26.9757 96.84975,28.7592 96.84975,30.6807 C96.84975,32.6022 96.51945,34.3857 95.85885,36.03105 C95.1984,37.67625 94.27365,39.09345 93.08475,40.28235 C91.8957,41.4714 90.49065,42.40215 88.8693,43.0746 C87.24795,43.7472 85.4646,44.0835 83.51895,44.0835 Z M83.51895,41.27325 C85.00815,41.27325 86.37135,40.99695 87.60825,40.4445 C88.8453,39.89205 89.9082,39.13545 90.7968,38.1747 C91.68555,37.21395 92.37615,36.09105 92.86845,34.806 C93.3609,33.52095 93.60705,32.1459 93.60705,30.6807 C93.60705,29.2155 93.3609,27.84045 92.86845,26.5554 C92.37615,25.27035 91.68555,24.14745 90.7968,23.1867 C89.9082,22.22595 88.8453,21.46935 87.60825,20.9169 C86.37135,20.36445 85.00815,20.08815 83.51895,20.08815 C82.0299,20.08815 80.6667,20.36445 79.4298,20.9169 C78.19275,21.46935 77.12985,22.22595 76.24125,23.1867 C75.3525,24.14745 74.6619,25.27035 74.1696,26.5554 C73.67715,27.84045 73.431,29.2155 73.431,30.6807 C73.431,32.1459 73.67715,33.52095 74.1696,34.806 C74.6619,36.09105 75.3525,37.21395 76.24125,38.1747 C77.12985,39.13545 78.19275,39.89205 79.4298,40.4445 C80.6667,40.99695 82.0299,41.27325 83.51895,41.27325 Z" id="Fill-1" fill="#8FC641"></path>
            <path d="M101.14395,19.4265 C101.14395,19.0287 101.3019,18.6471 101.5833,18.36585 C101.86455,18.08445 102.246,17.9265 102.64395,17.9265 L105.7623,17.9265 L114.62985,37.92255 L114.70365,37.92255 L123.645,17.9265 L126.65265,17.9265 C127.05045,17.9265 127.43205,18.08445 127.7133,18.36585 C127.99455,18.6471 128.15265,19.0287 128.15265,19.4265 L128.15265,43.4349 L125.049,43.4349 L125.049,22.0338 L124.9752,22.0338 L115.59045,43.4349 L113.70615,43.4349 L104.3214,22.0338 L104.24745,22.0338 L104.24745,43.4349 L101.14395,43.4349 L101.14395,19.4265 Z" id="Fill-3" fill="#8FC641"></path>
            <path d="M224.949,43.37775 L222.594,43.37775 C222.459,43.3644 222.4365,43.1988 222.4155,43.07205 C222.2775,42.2235 222.213,41.36325 222.195,40.5021 L222.195,40.46625 C222.1695,40.50585 222.144,40.54515 222.1185,40.5843 C221.415,41.6628 220.4595,42.59505 219.2955,43.14285 C217.068,44.19225 214.326,44.11605 212.241,43.35045 C210.7215,42.79215 209.397,41.6655 208.8015,40.13565 C208.4565,39.2451 208.383,38.2704 208.4595,37.3155 C208.563,36.02805 209.073,34.8072 210.0615,33.8607 C211.8015,32.1951 214.3785,31.6191 216.837,31.41435 C217.674,31.3446 218.5125,31.30005 219.354,31.29825 L222.15,31.29825 C222.15,30.3363 222.1875,29.36625 221.8905,28.47255 C221.5545,27.46545 220.7415,26.68845 219.6885,26.23695 C218.0655,25.5411 216.2025,25.5543 214.5045,25.9983 C213.213,26.33595 212.016,26.9943 210.9945,27.8604 C210.9945,27.8604 210.8685,27.9228 210.7845,27.8433 L209.3115,26.11845 C209.196,25.9491 209.337,25.8975 209.433,25.80735 C210.5445,24.77295 211.941,24.0855 213.4095,23.6553 C214.5375,23.32515 215.7165,23.13465 216.885,23.13675 C219.0375,23.1486 221.2635,23.61315 222.855,25.08195 C224.22,26.34255 224.7075,28.36695 224.721,30.25395 C224.7285,33.87405 224.64,37.4973 224.88,41.1066 C224.925,41.7918 224.991,42.47505 225.09,43.1535 C225.09,43.1535 225.138,43.3575 224.949,43.37775 Z M249.33,43.37775 L246.8055,43.37775 C246.7185,43.36635 246.6675,43.31835 246.6555,43.2279 L246.6555,40.2111 C246.636,40.24215 246.615,40.27275 246.594,40.30335 C244.923,42.74565 241.6365,43.92765 238.728,43.881 C236.352,43.8429 233.9625,43.0857 232.1415,41.5737 C230.565,40.26405 229.4475,38.42145 228.9285,36.4446 C228.624,35.28645 228.522,34.0806 228.5805,32.88225 C228.7275,29.86965 230.133,26.89965 232.575,25.1079 C236.325,22.35585 242.0535,22.4694 245.457,25.43325 C245.568,25.52925 245.6745,25.629 245.778,25.73205 C246.1065,26.0586 246.4005,26.42055 246.6555,26.808 L246.6555,14.9421 C246.6555,14.9421 246.6855,14.80815 246.8055,14.7921 L249.33,14.7921 C249.3435,14.7939 249.3555,14.79555 249.369,14.79735 C249.432,14.8233 249.471,14.8707 249.48,14.9421 L249.48,43.2279 C249.468,43.3146 249.42,43.3659 249.33,43.37775 Z M261.06,23.1369 C263.175,23.1552 265.392,23.7135 266.8725,25.29105 C267.306,25.75395 267.666,26.28375 267.9585,26.84835 C267.9585,26.84835 268.0215,26.9979 267.918,27.0756 L265.6455,28.42185 C265.557,28.46175 265.5435,28.4445 265.512,28.43175 C265.422,28.39455 265.3995,28.2918 265.3485,28.2009 C264.762,27.17175 263.8665,26.28795 262.758,25.9464 C261.2445,25.48005 259.4955,25.6563 258.2085,26.56545 C257.466,27.0909 256.965,27.9255 257.016,28.86315 C257.052,29.529 257.346,30.1653 257.9175,30.5613 C259.56,31.69785 261.7905,31.80285 263.628,32.2596 C264.069,32.36955 264.5055,32.50485 264.9315,32.6682 C266.142,33.13245 267.2925,33.879 267.9375,35.00685 C268.4055,35.8227 268.5375,36.7872 268.5375,37.7166 C268.539,38.7771 268.3065,39.85005 267.7605,40.76265 C266.4525,42.94875 263.6595,43.93425 261.084,43.8798 C258.6615,43.8285 256.164,43.06545 254.532,41.3742 C254.178,41.0064 253.8645,40.5999 253.593,40.1667 C253.4745,39.97695 253.275,39.80535 253.4535,39.65415 L255.6825,38.1396 C255.8775,38.0352 255.9075,38.21025 255.963,38.31255 C257.0535,40.31415 259.4625,41.49135 261.816,41.2938 C263.2815,41.1708 264.7755,40.4553 265.4445,39.1035 C265.9665,38.04945 265.785,36.6384 264.8295,35.9232 C263.2095,34.71135 260.973,34.58085 259.0965,34.09575 C258.669,33.9852 258.246,33.85245 257.8335,33.6948 C256.614,33.22845 255.4305,32.5332 254.754,31.37325 C254.319,30.6246 254.187,29.73915 254.187,28.8819 C254.1855,27.95865 254.3835,27.02715 254.8515,26.22615 C256.0485,24.18285 258.501,23.12955 261.06,23.1369 Z M196.08,23.1465 C198.0435,23.16105 200.004,23.74665 201.6465,24.83145 C203.421,26.00355 204.819,27.7449 205.5735,29.72175 C205.623,29.8503 205.662,29.91 205.5405,29.9955 L203.436,31.18005 C203.3775,31.2048 203.367,31.1988 203.367,31.1988 L190.5165,38.49885 C191.7225,39.79695 193.422,40.65735 195.1995,40.8522 C196.8,41.0277 198.4545,40.67775 199.8435,39.8607 C201.3165,38.99325 202.476,37.6155 203.085,36.0138 C203.085,36.0138 203.142,35.8347 203.307,35.8995 L205.4265,37.0059 C205.4895,37.0476 205.5285,37.0839 205.4955,37.1955 C204.411,39.84885 202.1625,42.0159 199.461,42.98115 C196.635,43.9908 193.3635,43.6707 190.7865,42.12555 C188.5815,40.8033 186.9045,38.6238 186.2025,36.1545 C185.4255,33.42 185.8545,30.36885 187.359,27.96045 C189.168,25.0638 192.441,23.17995 195.9615,23.1465 C196.002,23.14635 196.041,23.14635 196.08,23.1465 Z M137.622,43.3779 L135.09855,43.3779 C135.0186,43.3689 134.96325,43.35135 134.94855,43.2291 C134.90205,37.3404 134.868,31.41675 134.79315,25.59765 C134.7903,25.3662 134.78835,25.13475 134.78175,24.9033 C134.7696,24.5604 134.7606,24.5172 134.75475,24.3948 C134.7474,24.22755 134.74095,24.0603 134.73885,23.8929 C134.7372,23.7528 134.72355,23.6601 134.8881,23.6415 L137.412,23.6415 C137.412,23.6415 137.442,23.6442 137.4765,23.6556 C137.631,23.7498 137.5725,24.06555 137.5815,24.3279 C137.6115,25.188 137.586,26.05575 137.679,26.89485 L137.682,26.9145 C137.7,26.8782 137.7195,26.8422 137.7405,26.80635 C138.912,24.7002 141.2235,23.33655 143.6925,23.15985 C145.374,23.03955 147.108,23.25135 148.5645,24.1068 C150.2175,25.0776 151.275,26.8581 151.638,28.7544 C151.821,29.71275 151.9065,30.68655 151.908,31.6584 L151.908,43.2279 C151.899,43.30815 151.881,43.36395 151.758,43.3779 L149.2335,43.3779 C149.154,43.36875 149.0985,43.3509 149.0835,43.2279 L149.0835,31.785 C149.079,30.15465 148.908,28.45995 147.8805,27.16755 C146.3805,25.2792 143.0985,25.33065 140.9865,26.56395 C139.4685,27.4509 138.48,29.0988 138.0645,30.8118 C137.85,31.6932 137.775,32.6031 137.772,33.50985 L137.772,43.2279 C137.763,43.30815 137.745,43.36395 137.622,43.3779 Z M160.9545,43.3779 L158.43,43.3779 C158.343,43.36635 158.292,43.31835 158.28,43.2279 L158.28,23.79135 C158.292,23.70465 158.34,23.65335 158.43,23.6415 L160.9545,23.6415 C160.9665,23.64315 160.98,23.64495 160.9935,23.6466 C161.0565,23.6727 161.0955,23.71995 161.1045,23.79135 L161.1045,43.2279 C161.0925,43.3146 161.0445,43.3659 160.9545,43.3779 Z M184.3965,43.37775 L167.736,43.37775 C167.649,43.36635 167.598,43.31835 167.586,43.2279 L167.586,16.9614 C167.598,16.8747 167.646,16.8234 167.736,16.81155 L170.5125,16.81155 C170.526,16.8132 170.538,16.815 170.5515,16.81665 C170.6145,16.84275 170.6535,16.89 170.6625,16.9614 L170.6625,40.5537 L184.3965,40.5537 C184.3965,40.554 184.53,40.5834 184.5465,40.7037 L184.5465,43.2279 C184.5345,43.3146 184.4865,43.3659 184.3965,43.37775 Z M238.884,25.7085 C237.2325,25.7223 235.59,26.22435 234.282,27.21405 C231.012,29.68845 230.3955,35.1255 232.9455,38.47515 C233.8485,39.6603 235.137,40.5408 236.5695,40.97715 C240.3375,42.1266 244.878,40.2597 246.417,36.2286 C247.416,33.61335 246.8415,30.4659 244.9215,28.33815 C243.4395,26.6967 241.278,25.74105 239.0445,25.70895 C238.9905,25.7085 238.938,25.70835 238.884,25.7085 Z M222.15,33.61755 L219.522,33.61755 C217.6995,33.6213 215.847,33.7659 214.1715,34.3833 C213.135,34.76505 212.1135,35.34825 211.5945,36.3453 C210.8925,37.6953 211.3155,39.5376 212.6625,40.4601 C213.9945,41.37135 215.7435,41.44905 217.341,41.16615 C218.9805,40.87545 220.5315,39.936 221.3535,38.45295 C221.964,37.35135 222.147,36.036 222.15,34.77165 L222.15,33.61755 Z M195.9795,25.8225 C193.6275,25.84485 191.346,27.01485 189.9615,28.88775 C188.445,30.94065 188.07,33.7479 189.03,36.162 L189.036,36.17955 L202.029,28.7994 C201.996,28.7577 201.996,28.75785 201.9645,28.7163 C200.559,26.93715 198.366,25.8444 196.0875,25.8225 C196.0515,25.82235 196.0155,25.82235 195.9795,25.8225 Z M159.7185,15.80925 C160.5195,15.82215 161.289,16.3239 161.5875,17.0595 C162.0285,18.14685 161.379,19.5741 160.1775,19.8435 C158.988,20.1102 157.6485,19.19355 157.6485,17.85225 C157.6485,16.7934 158.538,15.8274 159.666,15.80925 C159.6915,15.8091 159.6915,15.8091 159.7185,15.80925 Z" id="Fill-39" fill="#94988F"></path>
            <path d="M21.0828,9.75375 C20.9208,9.3099 20.80395,8.8497 20.7381,8.3802 C20.4312,6.1896 21.22725,3.8724 22.8222,2.3334 C24.1077,1.09305 25.87695,0.3771 27.66225,0.36015 C27.6924,0.36 27.7227,0.36 27.75285,0.36015 C30.3486,0.38475 32.8611,1.9542 34.01265,4.2699 C34.85295,5.9598 34.96125,7.9935 34.33185,9.7719 L43.00485,14.7792 C43.1661,14.5866 43.338,14.40285 43.5201,14.2293 C44.80005,13.0089 46.5342,12.30225 48.32955,12.28515 C48.35985,12.285 48.39,12.285 48.4203,12.28515 C51.00585,12.3099 53.52435,13.87095 54.67995,16.1949 C55.62915,18.10365 55.64445,20.451 54.7176,22.37355 C53.751,24.37845 51.77505,25.82655 49.57185,26.23605 L49.57185,36.25365 C51.7287,36.65115 53.69775,38.07645 54.67995,40.0518 C55.62915,41.9604 55.64445,44.30775 54.7176,46.23045 C53.3955,48.97275 50.1849,50.6733 47.0874,50.09925 C45.48255,49.8018 44.02635,48.8913 42.9819,47.64045 L34.3029,52.65135 C34.95285,54.4197 34.8705,56.45385 34.05015,58.15545 C32.5281,61.31265 28.45275,63.0384 25.008,61.60485 C22.76205,60.6702 21.0762,58.4997 20.7381,56.0871 C20.5776,54.94065 20.7195,53.76 21.11955,52.674 L12.4437,47.66505 C10.85055,49.5342 8.2641,50.56485 5.7519,50.09925 C2.87505,49.56615 0.4764,47.0631 0.0699,44.1621 C-0.2409,41.9436 0.58155,39.59625 2.21505,38.0571 C3.20625,37.12305 4.46325,36.49515 5.8113,36.25305 L5.8113,26.25315 C5.7915,26.2497 5.7717,26.2461 5.7519,26.2425 C2.87505,25.7094 0.4764,23.20635 0.0699,20.3052 C-0.237,18.1146 0.55905,15.7974 2.154,14.2584 C3.4386,13.0191 5.19855,12.30225 6.9939,12.28515 C7.0242,12.285 7.0545,12.285 7.08465,12.28515 C9.09885,12.30435 11.07195,13.25715 12.39075,14.77215 L21.0828,9.75375 Z M27.6759,50.2173 C25.4661,50.2383 23.36985,51.9216 22.91955,54.11925 C22.59285,55.71375 23.12655,57.4605 24.2943,58.6008 C25.6425,59.91735 27.77955,60.3561 29.5536,59.63085 C31.6197,58.7862 32.93145,56.3898 32.5074,54.17895 C32.09235,52.0152 30.0912,50.2689 27.8025,50.21805 C27.76035,50.2173 27.71805,50.21715 27.6759,50.2173 Z M20.99895,42.8091 C19.215,43.9356 16.90785,44.28255 14.8308,43.4334 C14.56725,43.32555 14.31165,43.20015 14.06535,43.05855 C14.08125,44.0031 13.91325,44.95095 13.5603,45.8268 L22.15515,50.78895 C22.37565,50.50155 22.6188,50.23125 22.88325,49.9821 C23.30385,49.5858 23.7723,49.2447 24.2751,48.96465 C22.5603,47.92905 21.3213,46.11015 21.04245,44.1195 C20.9814,43.68435 20.9682,43.24515 20.99895,42.8091 Z M34.4208,42.87375 C34.46985,43.9806 34.25445,45.0993 33.77355,46.09695 C33.1929,47.30115 32.2242,48.28695 31.0608,48.95055 C31.89945,49.41015 32.64975,50.03265 33.246,50.7786 L41.8605,45.80505 C41.64045,45.28035 41.4849,44.7288 41.40555,44.1621 C41.3514,43.77555 41.33175,43.3851 41.34465,42.9957 C39.5964,43.97775 37.41615,44.2353 35.4513,43.4178 C35.0916,43.2681 34.7469,43.08525 34.4208,42.87375 Z M28.5579,38.0565 L28.5579,48.1239 C28.7148,48.1446 28.8711,48.17085 29.0262,48.20235 C29.24445,48.1467 29.45955,48.0762 29.6697,47.99025 C31.33185,47.31045 32.5869,45.714 32.847,43.9386 C33.16815,41.74695 31.92225,39.4143 29.90115,38.47005 C29.47575,38.2713 29.0211,38.13315 28.5579,38.0565 Z M27.0219,38.0358 C24.90945,38.3448 23.05095,40.0221 22.61865,42.1326 C22.27155,43.8267 22.8387,45.68385 24.07965,46.89555 C24.7251,47.52585 25.5408,47.9664 26.4144,48.1902 C26.6151,48.15225 26.81775,48.12285 27.0219,48.1023 L27.0219,38.0358 Z M7.00755,38.29215 C4.7997,38.3133 2.7024,39.99225 2.25135,42.19425 C1.92465,43.7886 2.45835,45.5355 3.6261,46.6758 C4.9752,47.99325 7.1157,48.42945 8.88525,47.70585 C10.9512,46.86105 12.26325,44.4648 11.8392,42.25395 C11.42415,40.0902 9.423,38.3439 7.1343,38.29305 C7.09215,38.2923 7.04985,38.29215 7.00755,38.29215 Z M48.3432,38.29215 C46.14525,38.3133 44.05545,39.9774 43.59315,42.1644 C43.254,43.76895 43.7874,45.5292 44.9616,46.6758 C46.3107,47.99325 48.4512,48.42945 50.2209,47.70585 C52.28685,46.86105 53.59875,44.46495 53.1747,42.2538 C52.7598,40.0902 50.75865,38.3439 48.46995,38.29305 C48.42765,38.2923 48.3855,38.29215 48.3432,38.29215 Z M22.12965,35.1366 L13.3989,40.16415 C13.5045,40.3872 13.59765,40.6161 13.6782,40.8492 C13.7007,40.872 13.7235,40.89465 13.74645,40.91715 C15.18015,42.31695 17.45115,42.78255 19.33665,42.0117 C21.52635,41.11635 22.91505,38.58645 22.48185,36.24945 C22.41045,35.8641 22.29075,35.49105 22.12965,35.1366 Z M33.28575,35.1135 C33.1338,35.44425 33.01785,35.7927 32.94375,36.15405 C32.5968,37.84845 33.1641,39.70575 34.4049,40.91715 C35.8386,42.31695 38.1096,42.78255 39.99495,42.0117 C40.668,41.7366 41.2743,41.31105 41.7747,40.7841 C41.85255,40.5699 41.9403,40.35915 42.03765,40.1532 L33.28575,35.1135 Z M21.29295,33.846 C20.3406,32.75925 18.95055,32.04015 17.47515,32.00745 C17.4303,32.0067 17.3856,32.0064 17.34075,32.00655 C14.9925,32.02875 12.76365,33.81945 12.28545,36.15405 C12.1176,36.9735 12.16365,37.83105 12.3963,38.63535 C12.4605,38.70915 12.52305,38.78445 12.5841,38.86095 L21.29295,33.846 Z M43.03275,38.60385 C43.0935,38.3928 43.1403,38.17785 43.17225,37.9602 C43.5822,35.16195 41.3751,32.2269 38.39985,32.01915 C38.2665,32.00985 38.13285,32.0061 37.99905,32.00655 C36.52905,32.0205 35.10585,32.72745 34.12965,33.82695 L42.83955,38.8425 C42.9021,38.7615 42.9666,38.682 43.03275,38.60385 Z M10.64715,25.32165 C9.82875,25.81065 8.91315,26.1432 7.9617,26.2815 L7.9617,36.2088 C8.90865,36.34395 9.8262,36.67845 10.6479,37.1721 C10.66785,35.3832 11.412,33.60285 12.7023,32.35785 C13.1646,31.91175 13.6908,31.5363 14.25915,31.2408 C12.381,30.2457 11.00505,28.32735 10.70925,26.21595 C10.6677,25.9194 10.6473,25.6206 10.64715,25.32165 Z M44.75265,25.32645 C44.7459,26.31555 44.5281,27.3027 44.09865,28.19355 C43.4655,29.50665 42.3705,30.56085 41.0643,31.2201 C42.3192,31.86195 43.38195,32.88045 44.02605,34.1373 C44.50215,35.06625 44.74455,36.10755 44.75265,37.1502 C45.56655,36.6642 46.4778,36.34215 47.4216,36.20985 L47.4216,26.2956 C47.31015,26.28075 47.1987,26.26305 47.0874,26.2425 C46.2573,26.0886 45.4668,25.7706 44.75265,25.32645 Z M27.0219,36.3573 L27.0219,32.31945 L23.54925,34.3191 C23.7126,34.54365 23.8944,34.75485 24.0936,34.9494 C24.88305,35.72025 25.9284,36.20625 27.0219,36.3573 Z M31.8696,34.29795 L28.5579,32.391 L28.5579,36.3459 C28.93455,36.2871 29.30535,36.1857 29.6622,36.03975 C30.54165,35.6802 31.30665,35.06295 31.8696,34.29795 Z M22.97565,29.1765 C22.8258,29.5038 22.71135,29.84805 22.6383,30.20475 C22.4514,31.1169 22.5306,32.07645 22.83795,32.95635 L26.1888,31.02675 L22.97565,29.1765 Z M32.40795,29.21805 L29.2668,31.02675 L32.5926,32.94195 C32.7009,32.63805 32.78025,32.32395 32.8272,32.00385 C32.9664,31.0539 32.8023,30.08745 32.40795,29.21805 Z M12.8181,23.32755 C12.67755,23.52555 12.5265,23.7159 12.36585,23.898 C12.3351,24.00705 12.30825,24.11745 12.28545,24.22905 C11.93835,25.92315 12.5055,27.78045 13.74645,28.99215 C15.18015,30.3918 17.45115,30.85755 19.33665,30.0867 C20.21505,29.72745 20.9646,29.10525 21.5193,28.338 L12.8181,23.32755 Z M42.63225,23.33055 L33.87045,28.3758 C34.03125,28.5951 34.20975,28.80165 34.4049,28.992 C35.8386,30.3918 38.1096,30.85755 39.99495,30.0867 C41.6571,29.4072 42.912,27.81045 43.17225,26.03505 C43.28535,25.2633 43.19895,24.4806 42.9519,23.7474 C42.84045,23.61225 42.7338,23.4732 42.63225,23.33055 Z M27.0219,26.1249 C25.7955,26.307 24.6459,26.9577 23.81865,27.88965 L27.0219,29.7342 L27.0219,26.1249 Z M28.5579,26.1447 L28.5579,29.66265 L31.58505,27.9195 C30.8205,27.01695 29.76585,26.35455 28.5579,26.1447 Z M41.7954,21.7872 C40.935,20.8413 39.7461,20.1882 38.39985,20.09415 C38.2665,20.08485 38.133,20.0811 37.99905,20.08155 C35.652,20.1039 33.4221,21.89445 32.94375,24.22905 C32.75445,25.1535 32.83725,26.1264 33.15315,27.0165 L41.8791,21.9918 C41.85,21.924 41.8221,21.85575 41.7954,21.7872 Z M22.23945,26.9802 C22.5474,26.13435 22.647,25.2153 22.48185,24.3243 C22.0521,22.00485 19.87665,20.13555 17.47515,20.08245 C17.4303,20.0817 17.3856,20.0814 17.34075,20.08155 C15.9651,20.0946 14.6298,20.715 13.66365,21.69645 C13.63005,21.79185 13.5942,21.88635 13.55625,21.9801 L22.23945,26.9802 Z M26.41335,14.30715 C24.55275,14.82045 22.99365,16.38405 22.6122,18.3075 C22.27785,19.99335 22.8459,21.83415 24.07965,23.0388 C24.87285,23.81325 25.92315,24.3012 27.0219,24.45255 L27.0219,14.385 C26.8188,14.36835 26.61585,14.34255 26.41335,14.30715 Z M28.93905,14.27715 C28.81275,14.30175 28.68555,14.32275 28.5579,14.3406 L28.5579,24.44115 C28.9371,24.3822 29.3106,24.2802 29.66985,24.13335 C31.3317,23.45385 32.5869,21.8571 32.847,20.08185 C33.16815,17.8902 31.92225,15.55755 29.90115,14.61315 C29.5932,14.4693 29.2698,14.35725 28.93905,14.27715 Z M7.00755,14.4354 C4.79955,14.45655 2.7024,16.13535 2.25135,18.33735 C1.92465,19.93185 2.45835,21.67875 3.6261,22.8189 C4.9752,24.13635 7.11555,24.57255 8.88525,23.84895 C10.95105,23.00445 12.26325,20.6079 11.8392,18.39705 C11.42385,16.23225 9.4236,14.487 7.1343,14.43615 C7.09215,14.43555 7.04985,14.43525 7.00755,14.4354 Z M48.3432,14.4354 C46.14525,14.4564 44.05545,16.1205 43.59315,18.30765 C43.254,19.9122 43.7874,21.67245 44.9616,22.81905 C46.31085,24.13635 48.4512,24.57255 50.2209,23.84895 C52.2867,23.00445 53.59875,20.60805 53.1747,18.39705 C52.75965,16.23225 50.75925,14.487 48.46995,14.43615 C48.42765,14.43555 48.3855,14.43525 48.3432,14.4354 Z M22.1166,11.63985 L13.52835,16.59825 C13.899,17.4882 14.0784,18.45555 14.06565,19.4202 C15.05445,18.86475 16.1832,18.5565 17.331,18.54555 L17.4177,18.54555 C18.6804,18.55755 19.92375,18.95115 20.9856,19.6281 C20.90925,17.7174 21.67395,15.7776 23.0646,14.4516 C23.43165,14.10165 23.8389,13.7958 24.2751,13.53855 C23.4369,13.0623 22.70085,12.4086 22.1166,11.63985 Z M33.29355,11.65545 C32.69115,12.4185 31.92375,13.0518 31.0605,13.5177 C32.1747,14.16255 33.11265,15.1113 33.7008,16.25895 C34.22685,17.28555 34.46775,18.4491 34.42215,19.60035 C35.47965,18.93165 36.723,18.5577 37.9893,18.54555 L38.07615,18.54555 C39.22125,18.5565 40.3497,18.88065 41.3412,19.4448 C41.3304,18.47955 41.52315,17.51295 41.89305,16.6203 L33.29355,11.65545 Z M27.67575,2.5104 C25.45965,2.5314 23.3685,4.22115 22.91955,6.41235 C22.59285,8.00685 23.12655,9.75375 24.2943,10.8939 C25.6434,12.21135 27.7839,12.64755 29.55345,11.92395 C31.61925,11.0793 32.93145,8.6829 32.5074,6.47205 C32.0919,4.3065 30.0639,2.5614 27.8025,2.51115 C27.7602,2.51055 27.71805,2.51025 27.67575,2.5104 Z" id="Fill-41" fill="#898B85"></path>
        </g>
    </g>
</svg>