<?xml version="1.0" encoding="utf-8"?>
<!-- Generator: Adobe Illustrator 23.0.1, SVG Export Plug-In . SVG Version: 6.00 Build 0)  -->
<svg version="1.1" id="Layer_1" focusable="false" xmlns="http://www.w3.org/2000/svg" xmlns:xlink="http://www.w3.org/1999/xlink"
	 x="0px" y="0px" viewBox="0 0 512 512" style="enable-background:new 0 0 512 512;" xml:space="preserve">
<style type="text/css">
	.st0{fill:#C5C9C5;}
</style>
<path class="st0" d="M256,152c-57.4,0-104,46.6-104,104s46.6,104,104,104s104-46.6,104-104S313.4,152,256,152z M256,280
	c-13.3,0-24-10.7-24-24c0-13.3,10.7-24,24-24c13.3,0,24,10.7,24,24C280,269.3,269.3,280,256,280z M256,8C119,8,8,119,8,256
	s111,248,248,248s248-111,248-248S393,8,256,8z M256,384c-70.7,0-128-57.3-128-128s57.3-128,128-128s128,57.3,128,128
	S326.7,384,256,384z"/>
</svg>
